<svg width="32" height="32" viewBox="0 0 32 32" fill="none" xmlns="http://www.w3.org/2000/svg">
<path d="M14.7073 6.29249C14.8003 6.38536 14.874 6.49566 14.9244 6.61705C14.9747 6.73845 15.0006 6.86858 15.0006 6.99999C15.0006 7.13141 14.9747 7.26154 14.9244 7.38293C14.874 7.50433 14.8003 7.61462 14.7073 7.70749L7.41356 15L26.9998 15C27.265 15 27.5194 15.1053 27.7069 15.2929C27.8945 15.4804 27.9998 15.7348 27.9998 16C27.9998 16.2652 27.8945 16.5196 27.7069 16.7071C27.5194 16.8946 27.265 17 26.9998 17H7.41356L14.7073 24.2925C14.895 24.4801 15.0004 24.7346 15.0004 25C15.0004 25.2654 14.895 25.5199 14.7073 25.7075C14.5197 25.8951 14.2652 26.0005 13.9998 26.0005C13.7344 26.0005 13.48 25.8951 13.2923 25.7075L4.29231 16.7075C4.19933 16.6146 4.12557 16.5043 4.07525 16.3829C4.02493 16.2615 3.99902 16.1314 3.99902 16C3.99902 15.8686 4.02493 15.7385 4.07525 15.6171C4.12557 15.4957 4.19933 15.3854 4.29231 15.2925L13.2923 6.29249C13.3852 6.19952 13.4955 6.12576 13.6169 6.07543C13.7383 6.02511 13.8684 5.99921 13.9998 5.99921C14.1312 5.99921 14.2614 6.02511 14.3828 6.07543C14.5041 6.12576 14.6144 6.19952 14.7073 6.29249Z" fill="#E1E1E6"/>
</svg>
