<svg width="30" height="30" viewBox="0 0 30 30" fill="none" xmlns="http://www.w3.org/2000/svg">
<g clip-path="url(#clip0_97_22)">
<path d="M15.0005 10.3125C14.0734 10.3125 13.1672 10.5874 12.3963 11.1025C11.6254 11.6176 11.0246 12.3496 10.6698 13.2062C10.3151 14.0627 10.2222 15.0052 10.4031 15.9145C10.584 16.8238 11.0304 17.659 11.686 18.3146C12.3415 18.9701 13.1768 19.4166 14.0861 19.5974C14.9953 19.7783 15.9378 19.6855 16.7944 19.3307C17.6509 18.9759 18.383 18.3751 18.8981 17.6042C19.4131 16.8334 19.688 15.9271 19.688 15C19.688 13.7568 19.1942 12.5645 18.3151 11.6854C17.436 10.8064 16.2437 10.3125 15.0005 10.3125ZM15.0005 17.8125C14.4443 17.8125 13.9005 17.6475 13.438 17.3385C12.9755 17.0295 12.615 16.5902 12.4021 16.0763C12.1893 15.5624 12.1336 14.9969 12.2421 14.4513C12.3506 13.9057 12.6185 13.4046 13.0118 13.0113C13.4051 12.6179 13.9063 12.3501 14.4518 12.2415C14.9974 12.133 15.5629 12.1887 16.0768 12.4016C16.5907 12.6145 17.03 12.9749 17.339 13.4375C17.6481 13.9 17.813 14.4437 17.813 15C17.813 15.7459 17.5167 16.4613 16.9893 16.9887C16.4618 17.5162 15.7465 17.8125 15.0005 17.8125ZM23.6384 18.6492C23.2356 19.6015 22.6781 20.4805 21.9884 21.2508C21.8214 21.4315 21.5901 21.5393 21.3443 21.5509C21.0985 21.5626 20.858 21.4771 20.6747 21.313C20.4913 21.1489 20.3799 20.9193 20.3643 20.6737C20.3488 20.4281 20.4304 20.1863 20.5916 20.0004C21.8225 18.6259 22.5032 16.8457 22.5032 15.0006C22.5032 13.1555 21.8225 11.3752 20.5916 10.0008C20.5071 9.90944 20.4417 9.80223 20.3992 9.68537C20.3566 9.56851 20.3377 9.44436 20.3436 9.32013C20.3495 9.1959 20.38 9.07408 20.4334 8.96177C20.4869 8.84946 20.5621 8.7489 20.6548 8.66595C20.7474 8.58301 20.8557 8.51932 20.9732 8.47862C21.0907 8.43791 21.2152 8.42099 21.3393 8.42885C21.4634 8.43671 21.5847 8.46919 21.6962 8.52439C21.8076 8.57959 21.907 8.65642 21.9884 8.75039C23.1722 10.075 23.9557 11.7084 24.2477 13.4607C24.5398 15.213 24.3285 17.0123 23.6384 18.6492ZM8.08647 12.0809C7.53332 13.3903 7.36367 14.8299 7.59729 16.2321C7.83091 17.6342 8.45818 18.9411 9.406 20.0004C9.56718 20.1863 9.6488 20.4281 9.63325 20.6737C9.61771 20.9193 9.50624 21.1489 9.3229 21.313C9.13956 21.4771 8.89906 21.5626 8.65327 21.5509C8.40749 21.5393 8.17613 21.4315 8.00913 21.2508C6.46997 19.5328 5.61886 17.3072 5.61886 15.0006C5.61886 12.6939 6.46997 10.4684 8.00913 8.75039C8.17494 8.56469 8.40773 8.45246 8.65629 8.43839C8.90485 8.42433 9.14882 8.50958 9.33452 8.67539C9.52022 8.8412 9.63245 9.07399 9.64652 9.32255C9.66058 9.57111 9.57533 9.81508 9.40952 10.0008C8.85639 10.6161 8.4093 11.319 8.08647 12.0809ZM29.063 15C29.0687 18.6817 27.6253 22.2178 25.0447 24.8438C24.9593 24.935 24.8565 25.0083 24.7424 25.0593C24.6283 25.1103 24.5052 25.1379 24.3802 25.1406C24.2553 25.1433 24.131 25.121 24.0148 25.075C23.8986 25.029 23.7928 24.9602 23.7036 24.8727C23.6143 24.7852 23.5435 24.6807 23.4952 24.5654C23.447 24.4501 23.4222 24.3263 23.4225 24.2014C23.4228 24.0764 23.448 23.9527 23.4968 23.8376C23.5455 23.7226 23.6168 23.6184 23.7064 23.5312C25.9408 21.2547 27.1927 18.1922 27.1927 15.0023C27.1927 11.8125 25.9408 8.74996 23.7064 6.47344C23.5317 6.29597 23.4347 6.05638 23.4367 5.80738C23.4387 5.55839 23.5395 5.32037 23.7169 5.1457C23.8944 4.97103 24.134 4.87401 24.383 4.87599C24.632 4.87797 24.87 4.97878 25.0447 5.15625C27.6253 7.78222 29.0687 11.3183 29.063 15ZM6.29468 23.5289C6.38101 23.6168 6.44919 23.7208 6.49533 23.835C6.54146 23.9492 6.56465 24.0714 6.56356 24.1946C6.56247 24.3178 6.53713 24.4396 6.48898 24.5529C6.44084 24.6663 6.37083 24.7691 6.28296 24.8555C6.19509 24.9418 6.09107 25.01 5.97685 25.0561C5.86262 25.1023 5.74043 25.1254 5.61725 25.1243C5.49407 25.1233 5.3723 25.0979 5.25891 25.0498C5.14553 25.0016 5.04273 24.9316 4.9564 24.8438C2.37614 22.217 0.93042 18.6821 0.93042 15C0.93042 11.3179 2.37614 7.78304 4.9564 5.15625C5.04177 5.06497 5.14453 4.99168 5.25865 4.9407C5.37276 4.88971 5.49591 4.86206 5.62086 4.85936C5.74582 4.85667 5.87005 4.87899 5.98625 4.925C6.10246 4.97102 6.20829 5.03981 6.29752 5.12732C6.38675 5.21483 6.45758 5.3193 6.50585 5.43459C6.55412 5.54987 6.57885 5.67365 6.57858 5.79863C6.57832 5.92361 6.55306 6.04728 6.50431 6.16236C6.45555 6.27744 6.38428 6.38161 6.29468 6.46875C4.06022 8.74528 2.80839 11.8078 2.80839 14.9977C2.80839 18.1875 4.06022 21.25 6.29468 23.5266V23.5289Z" fill="#9334EA"/>
</g>
<defs>
<clipPath id="clip0_97_22">
<rect width="30" height="30" fill="white" transform="translate(0.000488281)"/>
</clipPath>
</defs>
</svg>
