<svg width="30" height="30" viewBox="0 0 30 30" fill="none" xmlns="http://www.w3.org/2000/svg">
<path d="M15.9373 9.375V14.4691L20.1701 17.0086C20.3833 17.1366 20.5369 17.3442 20.5971 17.5855C20.6573 17.8268 20.6192 18.0821 20.4912 18.2953C20.3631 18.5085 20.1556 18.6621 19.9143 18.7224C19.673 18.7826 19.4177 18.7445 19.2044 18.6164L14.5169 15.8039C14.3782 15.7206 14.2634 15.6027 14.1837 15.4618C14.1041 15.321 14.0622 15.1619 14.0623 15V9.375C14.0623 9.12636 14.161 8.88791 14.3368 8.71209C14.5127 8.53628 14.7511 8.4375 14.9998 8.4375C15.2484 8.4375 15.4869 8.53628 15.6627 8.71209C15.8385 8.88791 15.9373 9.12636 15.9373 9.375ZM14.9998 3.75C13.5208 3.74632 12.0559 4.03598 10.6897 4.60222C9.32344 5.16847 8.08309 6.00004 7.04038 7.04883C6.18843 7.91133 5.4314 8.74102 4.68726 9.60938V7.5C4.68726 7.25136 4.58848 7.01291 4.41267 6.83709C4.23685 6.66128 3.9984 6.5625 3.74976 6.5625C3.50112 6.5625 3.26266 6.66128 3.08684 6.83709C2.91103 7.01291 2.81226 7.25136 2.81226 7.5V12.1875C2.81226 12.4361 2.91103 12.6746 3.08684 12.8504C3.26266 13.0262 3.50112 13.125 3.74976 13.125H8.43726C8.6859 13.125 8.92435 13.0262 9.10017 12.8504C9.27598 12.6746 9.37476 12.4361 9.37476 12.1875C9.37476 11.9389 9.27598 11.7004 9.10017 11.5246C8.92435 11.3488 8.6859 11.25 8.43726 11.25H5.74194C6.57983 10.2633 7.41421 9.33399 8.36577 8.37071C9.66872 7.06776 11.3268 6.17767 13.1327 5.81166C14.9386 5.44564 16.8124 5.61994 18.5198 6.31276C20.2273 7.00558 21.6927 8.18621 22.7329 9.70712C23.7732 11.228 24.3422 13.0218 24.3689 14.8642C24.3956 16.7067 23.8787 18.5162 22.8828 20.0665C21.887 21.6169 20.4563 22.8394 18.7696 23.5813C17.0829 24.3233 15.215 24.5517 13.3992 24.2381C11.5835 23.9244 9.9004 23.0827 8.5603 21.818C8.47074 21.7333 8.36538 21.6672 8.25024 21.6232C8.1351 21.5793 8.01244 21.5585 7.88925 21.562C7.76607 21.5655 7.64478 21.5932 7.53231 21.6435C7.41983 21.6939 7.31838 21.7659 7.23374 21.8555C7.1491 21.945 7.08293 22.0504 7.03901 22.1655C6.99508 22.2807 6.97427 22.4033 6.97775 22.5265C6.98123 22.6497 7.00894 22.771 7.0593 22.8835C7.10966 22.9959 7.18167 23.0974 7.27124 23.182C8.60653 24.4421 10.2299 25.3563 11.9998 25.8447C13.7696 26.333 15.6321 26.3809 17.4246 25.9839C19.2172 25.587 20.8853 24.7574 22.2835 23.5675C23.6817 22.3776 24.7675 20.8636 25.446 19.1576C26.1245 17.4516 26.3752 15.6055 26.1761 13.7803C25.9771 11.9551 25.3343 10.2064 24.304 8.6868C23.2737 7.16716 21.8872 5.92278 20.2653 5.06225C18.6435 4.20172 16.8357 3.7512 14.9998 3.75Z" fill="#9334EA"/>
</svg>
