<svg width="30" height="30" viewBox="0 0 30 30" fill="none" xmlns="http://www.w3.org/2000/svg">
<path d="M27.0237 5.8043C26.8794 5.47091 26.6402 5.1873 26.336 4.98874C26.0318 4.79017 25.676 4.68542 25.3127 4.6875H4.68771C4.32482 4.68821 3.96993 4.79422 3.6661 4.99266C3.36227 5.1911 3.12256 5.47345 2.97603 5.80545C2.82951 6.13745 2.78248 6.50483 2.84065 6.86303C2.89882 7.22124 3.05968 7.55486 3.30373 7.82344L3.3131 7.83398L11.2502 16.309V25.3125C11.2501 25.6518 11.3422 25.9849 11.5165 26.276C11.6908 26.5672 11.9408 26.8056 12.24 26.9658C12.5391 27.126 12.8761 27.202 13.2151 27.1858C13.554 27.1695 13.8822 27.0616 14.1647 26.8734L17.9147 24.3727C18.1717 24.2014 18.3825 23.9693 18.5283 23.697C18.6741 23.4247 18.7503 23.1206 18.7502 22.8117V16.309L26.6885 7.83398L26.6979 7.82344C26.9445 7.55609 27.1069 7.22202 27.1648 6.86293C27.2228 6.50384 27.1737 6.13565 27.0237 5.8043ZM17.1307 15.3023C16.9685 15.4743 16.8773 15.7011 16.8752 15.9375V22.8117L13.1252 25.3125V15.9375C13.1253 15.6994 13.0348 15.4703 12.8721 15.2965L4.68771 6.5625H25.3127L17.1307 15.3023Z" fill="#9334EA"/>
</svg>
