<svg width="30" height="30" viewBox="0 0 30 30" fill="none" xmlns="http://www.w3.org/2000/svg">
<path d="M26.2495 15C26.2495 15.2486 26.1507 15.4871 25.9749 15.6629C25.7991 15.8387 25.5607 15.9375 25.312 15.9375H15.937V25.3125C15.937 25.5611 15.8382 25.7996 15.6624 25.9754C15.4866 26.1512 15.2482 26.25 14.9995 26.25C14.7509 26.25 14.5124 26.1512 14.3366 25.9754C14.1608 25.7996 14.062 25.5611 14.062 25.3125V15.9375H4.68701C4.43837 15.9375 4.19991 15.8387 4.0241 15.6629C3.84828 15.4871 3.74951 15.2486 3.74951 15C3.74951 14.7514 3.84828 14.5129 4.0241 14.3371C4.19991 14.1613 4.43837 14.0625 4.68701 14.0625H14.062V4.6875C14.062 4.43886 14.1608 4.2004 14.3366 4.02459C14.5124 3.84877 14.7509 3.75 14.9995 3.75C15.2482 3.75 15.4866 3.84877 15.6624 4.02459C15.8382 4.2004 15.937 4.43886 15.937 4.6875V14.0625H25.312C25.5607 14.0625 25.7991 14.1613 25.9749 14.3371C26.1507 14.5129 26.2495 14.7514 26.2495 15Z" fill="#9334EA"/>
</svg>
